<svg viewBox="0 0 32 32" xmlns="http://www.w3.org/2000/svg">
  <path fill="#002367" d="M24 10.6667H22.6667V8C22.6667 4.32 19.68 1.33333 16 1.33333C12.32 1.33333 9.33333 4.32 9.33333 8V10.6667H8C6.53333 10.6667 5.33333 11.8667 5.33333 13.3333V26.6667C5.33333 28.1333 6.53333 29.3333 8 29.3333H24C25.4667 29.3333 26.6667 28.1333 26.6667 26.6667V13.3333C26.6667 11.8667 25.4667 10.6667 24 10.6667ZM16 22.6667C14.5333 22.6667 13.3333 21.4667 13.3333 20C13.3333 18.5333 14.5333 17.3333 16 17.3333C17.4667 17.3333 18.6667 18.5333 18.6667 20C18.6667 21.4667 17.4667 22.6667 16 22.6667ZM12 10.6667V8C12 5.78667 13.7867 4 16 4C18.2133 4 20 5.78667 20 8V10.6667H12Z"/>
</svg>
