<svg viewBox="0 0 20 20" xmlns="http://www.w3.org/2000/svg">
  <path fill="#002367" d="M10 6.66667C8.15833 6.66667 6.66667 8.15833 6.66667 10C6.66667 11.8417 8.15833 13.3333 10 13.3333C11.8417 13.3333 13.3333 11.8417 13.3333 10C13.3333 8.15833 11.8417 6.66667 10 6.66667ZM17.45 9.16667C17.0667 5.69167 14.3083 2.93333 10.8333 2.55V1.66667C10.8333 1.20833 10.4583 0.833334 10 0.833334C9.54167 0.833334 9.16667 1.20833 9.16667 1.66667V2.55C5.69167 2.93333 2.93333 5.69167 2.55 9.16667H1.66667C1.20833 9.16667 0.833334 9.54167 0.833334 10C0.833334 10.4583 1.20833 10.8333 1.66667 10.8333H2.55C2.93333 14.3083 5.69167 17.0667 9.16667 17.45V18.3333C9.16667 18.7917 9.54167 19.1667 10 19.1667C10.4583 19.1667 10.8333 18.7917 10.8333 18.3333V17.45C14.3083 17.0667 17.0667 14.3083 17.45 10.8333H18.3333C18.7917 10.8333 19.1667 10.4583 19.1667 10C19.1667 9.54167 18.7917 9.16667 18.3333 9.16667H17.45ZM10 15.8333C6.775 15.8333 4.16667 13.225 4.16667 10C4.16667 6.775 6.775 4.16667 10 4.16667C13.225 4.16667 15.8333 6.775 15.8333 10C15.8333 13.225 13.225 15.8333 10 15.8333Z"/>
</svg>
