<svg preserveAspectRatio="none" width="100%" height="100%" overflow="visible" style="display: block;" viewBox="0 0 30 30" fill="none" xmlns="http://www.w3.org/2000/svg">
<g id="Group 16">
<path id="Ellipse 41" opacity="0.2" d="M30 15C30 23.2843 23.2843 30 15 30C6.71574 30 1.13249e-05 23.2843 1.13249e-05 15C1.13249e-05 6.71573 6.71574 0 15 0C23.2843 0 30 6.71573 30 15ZM4.50001 15C4.50001 20.799 9.20102 25.5 15 25.5C20.799 25.5 25.5 20.799 25.5 15C25.5 9.20101 20.799 4.5 15 4.5C9.20102 4.5 4.50001 9.20101 4.50001 15Z" fill="var(--fill-0, #D90000)"/>
<path id="Ellipse 42" d="M13.0027 0.133582C15.3488 -0.181605 17.7362 0.06293 19.9697 0.847193C22.2031 1.63146 24.2193 2.93318 25.8532 4.64594L22.5973 7.75216C21.4535 6.55323 20.0422 5.64203 18.4788 5.09304C16.9153 4.54406 15.2442 4.37288 13.6019 4.59351L13.0027 0.133582Z" fill="var(--fill-0, #D90000)"/>
</g>
</svg>
