<svg preserveAspectRatio="none" width="100%" height="100%" overflow="visible" style="display: block;" viewBox="0 0 107.427 78" fill="none" xmlns="http://www.w3.org/2000/svg">
<g id="WhatsApp Image 2026-04-05 at 13.25.43 1" clip-path="url(#clip0_0_38)">
<g id="Vector">
</g>
<path id="Vector_2" d="M28.4818 2.48183C53.4509 2.48183 53.4509 2.48183 57.6727 4.6091C57.7841 4.66434 57.7841 4.66434 57.8978 4.7207C59.0738 5.31372 60.0179 6.08751 60.9818 6.97273C61.1036 7.07991 61.1036 7.07991 61.2279 7.18925C63.058 8.88226 64.3968 11.5203 64.8818 13.9455C64.9208 10.9035 64.9598 7.86146 65 4.72728C67.067 4.72728 69.134 4.72728 71.2636 4.72728C71.2636 7.80828 71.2636 10.8893 71.2636 14.0636C74.5006 14.0636 77.7376 14.0636 81.0727 14.0636C81.0727 15.8576 81.0727 17.6516 81.0727 19.5C77.8357 19.5 74.5987 19.5 71.2636 19.5C71.2744 23.2949 71.2744 23.2949 71.2883 27.0897C71.2948 28.6383 71.3008 30.1869 71.3046 31.7355C71.3073 32.8636 71.3113 33.9917 71.3167 35.1198C71.3195 35.7164 71.3217 36.313 71.3224 36.9096C71.3232 37.4727 71.3255 38.0358 71.3291 38.5989C71.3302 38.804 71.3306 39.0092 71.3304 39.2144C71.329 41.1754 71.3996 43.4531 72.6892 45.049C74.2571 46.5188 76.7021 46.3857 78.6943 46.4085C79.5182 46.4207 80.3421 46.4329 81.1909 46.4455C81.1909 48.2395 81.1909 50.0335 81.1909 51.8818C80.3091 51.8868 79.4273 51.8915 78.5455 51.8941C78.1347 51.8953 77.7239 51.8969 77.3131 51.8997C76.8399 51.9028 76.3667 51.9039 75.8935 51.9049C75.7489 51.9061 75.6043 51.9073 75.4553 51.9086C72.775 51.9089 69.9479 51.2304 67.9785 49.3132C67.8497 49.1807 67.8497 49.1807 67.7182 49.0455C67.593 48.9239 67.593 48.9239 67.4652 48.7999C64.7526 46.0044 64.9452 41.5071 64.9402 37.9074C64.9391 37.3669 64.936 36.8264 64.9331 36.2859C64.928 35.2659 64.9246 34.246 64.9218 33.2261C64.9186 32.0634 64.9134 30.9007 64.9081 29.738C64.8972 27.3496 64.8887 24.9612 64.8818 22.5727C64.8419 22.7109 64.802 22.849 64.7608 22.9913C64.7076 23.1743 64.6543 23.3572 64.6011 23.5401C64.5749 23.631 64.5487 23.7218 64.5216 23.8154C64.3372 24.4472 64.1263 25.0477 63.8329 25.6381C63.7724 25.7629 63.7724 25.7629 63.7106 25.8902C63.3744 26.5663 62.9873 27.1801 62.5182 27.7727C62.3941 27.9325 62.3941 27.9325 62.2675 28.0954C60.2416 30.6409 57.6635 32.2048 54.6 33.2091C54.4563 33.2565 54.3127 33.3039 54.1647 33.3527C51.9025 34.0457 49.5947 34.1737 47.245 34.1661C47.0634 34.1659 46.8818 34.1658 46.7002 34.1657C46.0342 34.1651 45.3683 34.1635 44.7023 34.1619C43.2105 34.1595 41.7188 34.1571 40.1818 34.1545C40.1818 39.7705 40.1818 45.3865 40.1818 51.1727C36.3208 51.1727 32.4598 51.1727 28.4818 51.1727C28.4818 35.1047 28.4818 19.0367 28.4818 2.48183Z" fill="var(--fill-0, #D90000)"/>
<path id="Vector_3" d="M65 4.72727C67.067 4.72727 69.134 4.72727 71.2636 4.72727C71.2636 7.80827 71.2636 10.8893 71.2636 14.0636C74.5006 14.0636 77.7376 14.0636 81.0727 14.0636C81.0727 15.8576 81.0727 17.6516 81.0727 19.5C77.8357 19.5 74.5987 19.5 71.2636 19.5C71.2743 23.2949 71.2743 23.2949 71.2883 27.0897C71.2948 28.6383 71.3008 30.1869 71.3046 31.7355C71.3073 32.8636 71.3113 33.9917 71.3167 35.1198C71.3195 35.7164 71.3217 36.313 71.3224 36.9096C71.3232 37.4727 71.3255 38.0358 71.3291 38.5989C71.3302 38.804 71.3306 39.0092 71.3304 39.2144C71.329 41.1754 71.3996 43.4531 72.6892 45.049C74.2571 46.5188 76.7021 46.3857 78.6943 46.4085C79.5182 46.4207 80.3421 46.4329 81.1909 46.4455C81.1909 48.2395 81.1909 50.0335 81.1909 51.8818C80.3091 51.8868 79.4273 51.8915 78.5455 51.8941C78.1347 51.8953 77.7239 51.8969 77.3131 51.8996C76.8399 51.9027 76.3667 51.9039 75.8935 51.9049C75.7489 51.9061 75.6043 51.9073 75.4553 51.9086C72.775 51.9089 69.9479 51.2304 67.9785 49.3132C67.8926 49.2248 67.8067 49.1365 67.7182 49.0455C67.6347 48.9644 67.5512 48.8834 67.4652 48.7999C65.2759 46.5437 64.9388 42.8909 64.9597 39.9084C64.9598 39.7032 64.9598 39.4979 64.9596 39.2927C64.9595 38.7434 64.9615 38.1942 64.964 37.6449C64.9663 37.068 64.9665 36.491 64.9669 35.9141C64.968 34.825 64.9709 33.7361 64.9745 32.6471C64.9784 31.4058 64.9804 30.1645 64.9822 28.9232C64.9858 26.373 64.9921 23.8229 65 21.2727C65.078 21.2727 65.156 21.2727 65.2364 21.2727C65.2224 20.4105 65.2077 19.5483 65.1924 18.6861C65.1872 18.3928 65.1823 18.0996 65.1776 17.8064C65.1707 17.3845 65.1632 16.9627 65.1556 16.5408C65.1536 16.4101 65.1516 16.2793 65.1496 16.1446C65.1472 16.0216 65.1449 15.8986 65.1424 15.7719C65.1406 15.6643 65.1388 15.5567 65.1369 15.4459C65.1242 15.1231 65.1242 15.1231 65.0584 14.7931C64.9883 14.343 64.9844 13.9022 64.9866 13.4481C64.9866 13.3535 64.9865 13.2588 64.9865 13.1613C64.9866 12.8506 64.9875 12.5398 64.9885 12.229C64.9887 12.0128 64.9888 11.7965 64.989 11.5803C64.9894 11.0126 64.9906 10.4449 64.9919 9.87716C64.9933 9.19521 64.9938 8.51326 64.9945 7.83131C64.9957 6.79663 64.9979 5.76195 65 4.72727Z" fill="var(--fill-0, white)"/>
<path id="Vector_4" d="M2.36365 56.3727C13.0522 56.3727 13.0522 56.3727 14.7136 57.2812C14.7903 57.3215 14.867 57.3617 14.946 57.4031C16.5107 58.2592 17.5205 59.5409 18.0818 61.2182C18.4923 63.046 18.288 65.0864 17.3395 66.7021C16.2188 68.3958 14.4812 69.3099 12.5273 69.7273C11.7636 69.8443 11.0204 69.8609 10.2486 69.857C10.124 69.8568 9.99944 69.8567 9.87109 69.8565C9.47618 69.8558 9.08128 69.8543 8.68637 69.8528C8.41739 69.8522 8.1484 69.8517 7.87941 69.8512C7.22264 69.85 6.56588 69.8477 5.9091 69.8455C5.9091 71.6785 5.9091 73.5115 5.9091 75.4C4.7391 75.4 3.5691 75.4 2.36365 75.4C2.36365 69.121 2.36365 62.842 2.36365 56.3727Z" fill="var(--fill-0, white)"/>
<path id="Vector_5" d="M40.3 12.0545C42.055 12.0436 42.055 12.0436 43.8455 12.0324C44.2108 12.0292 44.5761 12.0259 44.9525 12.0226C50.0026 11.9961 50.0026 11.9961 51.8209 13.7363C53.4059 15.5868 53.4732 17.6378 53.3 19.9727C53.1327 21.2781 52.4384 22.4739 51.446 23.3261C49.8354 24.514 47.9049 24.7578 45.9552 24.7346C45.8105 24.7343 45.6658 24.7339 45.5167 24.7335C44.9842 24.7317 44.4518 24.7268 43.9193 24.7222C42.1278 24.7112 42.1278 24.7112 40.3 24.7C40.3 20.527 40.3 16.354 40.3 12.0545Z" fill="var(--fill-0, #002367)"/>
<path id="Vector_6" d="M89.2273 61.9273C90.8787 63.2182 91.8838 64.805 92.1818 66.8909C92.1818 67.6709 92.1818 68.4509 92.1818 69.2545C88.4378 69.2545 84.6938 69.2545 80.8364 69.2545C81.4873 70.6866 81.897 71.5638 83.3182 72.2091C84.8954 72.7809 86.4869 72.6885 88.0454 72.0909C88.3848 71.889 88.6898 71.6762 88.9964 71.428C89.2273 71.2636 89.2273 71.2636 89.5818 71.2636C89.7683 71.4114 89.7683 71.4114 89.9659 71.6182C90.0373 71.6927 90.1088 71.7672 90.1824 71.8439C90.5413 72.235 90.8916 72.6329 91.2364 73.0364C90.8396 73.9994 89.7472 74.5409 88.8339 74.924C86.5433 75.8048 84.0301 75.7889 81.7389 74.8894C79.7821 73.9794 78.5414 72.5153 77.7807 70.5264C77.5107 69.7288 77.4737 68.984 77.4829 68.1466C77.4816 68.0229 77.4802 67.8992 77.4788 67.7717C77.4862 65.7722 78.1957 64.1269 79.5844 62.6881C82.0785 60.3442 86.3832 59.9461 89.2273 61.9273Z" fill="var(--fill-0, white)"/>
<path id="Vector_7" d="M71.1454 61.9273C72.3532 62.87 73.1961 63.9238 73.7454 65.3546C73.7834 65.447 73.8213 65.5395 73.8604 65.6348C74.276 66.843 74.1 67.9159 74.1 69.2546C70.356 69.2546 66.612 69.2546 62.7545 69.2546C63.3256 70.6823 63.8217 71.561 65.2364 72.2091C66.748 72.8021 68.4678 72.7042 69.9636 72.0909C70.4383 71.8311 70.8567 71.5007 71.2636 71.1455C71.9683 71.7152 72.5597 72.3539 73.1545 73.0364C72.7364 74.0427 71.5588 74.6095 70.6086 75.0155C68.2529 75.8699 65.5719 75.7765 63.3011 74.7205C61.434 73.7122 60.2776 72.2329 59.6019 70.242C59.3974 69.5288 59.3869 68.8329 59.3937 68.0949C59.3947 67.9588 59.3957 67.8228 59.3967 67.6826C59.4351 65.7567 60.1052 64.1777 61.4347 62.7583C64.0034 60.3515 68.2075 59.9089 71.1454 61.9273Z" fill="var(--fill-0, white)"/>
<path id="Vector_8" d="M53.5364 61.2182C53.6422 61.2596 53.7481 61.3011 53.8572 61.3438C55.0168 61.8583 55.9127 62.7736 56.6091 63.8182C56.5938 64.0579 56.5938 64.0579 56.4909 64.2909C56.2878 64.4512 56.2878 64.4512 56.0265 64.5915C55.8855 64.6683 55.8855 64.6683 55.7416 64.7468C55.6428 64.7987 55.5439 64.8505 55.442 64.904C55.2951 64.9839 55.2951 64.9839 55.1452 65.0653C54.7686 65.2683 54.4157 65.4554 54.0091 65.5909C53.9335 65.469 53.858 65.3472 53.7801 65.2216C53.1958 64.4086 52.2697 63.8827 51.2909 63.7C49.9431 63.5779 48.7017 63.7855 47.6273 64.6455C46.7425 65.4724 46.2669 66.4333 46.1809 67.6411C46.1547 68.9549 46.3273 70.1322 47.1905 71.1755C48.019 72.0287 48.9412 72.4807 50.1334 72.5129C51.4169 72.5088 52.3926 72.3812 53.3591 71.4525C53.5887 71.2001 53.8035 70.9448 54.0091 70.6727C54.6516 70.8491 55.1543 71.1574 55.7079 71.5148C55.8384 71.5977 55.8384 71.5977 55.9715 71.6824C56.1845 71.8179 56.3969 71.9543 56.6091 72.0909C56.2951 73.23 55.4051 74.0393 54.4079 74.6244C52.6031 75.6086 50.3972 75.8274 48.3954 75.3852C46.5441 74.819 44.6813 73.7807 43.73 72.0309C43.0222 70.6627 42.7595 69.585 42.7523 68.0506C42.7498 67.9238 42.7474 67.7969 42.7449 67.6663C42.7354 65.7166 43.4561 64.2232 44.8075 62.8409C47.0667 60.6836 50.6376 60.0448 53.5364 61.2182Z" fill="var(--fill-0, white)"/>
<path id="Vector_9" d="M97.0273 57.6727C98.1583 57.6727 99.2893 57.6727 100.455 57.6727C100.455 58.7257 100.455 59.7787 100.455 60.8637C101.742 60.8637 103.029 60.8637 104.355 60.8637C104.355 61.7607 104.355 62.6576 104.355 63.5818C103.068 63.5818 101.781 63.5818 100.455 63.5818C100.465 64.9031 100.465 64.9031 100.479 66.2243C100.486 66.7637 100.492 67.3032 100.495 67.8426C100.499 68.2779 100.503 68.7131 100.509 69.1484C100.511 69.3138 100.513 69.4793 100.513 69.6448C100.498 71.1298 100.498 71.1298 101.201 72.3864C102.236 72.8077 103.347 72.626 104.355 72.2091C104.765 72.9715 105.041 73.7472 105.3 74.5727C104.02 75.5971 102.376 75.6536 100.809 75.5182C99.7227 75.3518 98.7009 74.8067 97.9875 73.9671C97.2308 72.9105 97.0113 71.6334 97.0139 70.3572C97.0139 70.2059 97.0139 70.0545 97.0139 69.8985C97.0145 69.7357 97.0151 69.5729 97.0157 69.4101C97.016 69.2417 97.0161 69.0733 97.0162 68.9049C97.0167 68.4641 97.0178 68.0233 97.0192 67.5824C97.0204 67.1317 97.0209 66.6809 97.0215 66.2301C97.0228 65.3473 97.0248 64.4646 97.0273 63.5818C96.2473 63.5818 95.4673 63.5818 94.6636 63.5818C94.6636 62.6848 94.6636 61.7878 94.6636 60.8637C95.4436 60.8637 96.2236 60.8637 97.0273 60.8637C97.0273 59.8107 97.0273 58.7577 97.0273 57.6727Z" fill="var(--fill-0, white)"/>
<path id="Vector_10" d="M30.8455 60.7455C30.8455 61.7985 30.8455 62.8515 30.8455 63.9364C30.5383 63.9461 30.2312 63.9559 29.9148 63.9659C28.7494 64.0236 27.7819 64.2623 26.9455 65.1182C26.0181 66.3264 25.9455 67.5727 25.9395 69.0408C25.9375 69.2248 25.9354 69.4087 25.9331 69.5927C25.9275 70.0735 25.924 70.5544 25.9209 71.0352C25.9173 71.5273 25.9118 72.0193 25.9065 72.5113C25.8964 73.4742 25.8886 74.4371 25.8818 75.4C24.7508 75.4 23.6198 75.4 22.4545 75.4C22.4545 70.603 22.4545 65.806 22.4545 60.8637C23.5465 60.8637 24.6385 60.8637 25.7636 60.8637C25.8221 61.7997 25.8221 61.7997 25.8818 62.7546C26.0768 62.5206 26.2718 62.2866 26.4727 62.0455C27.8576 60.9649 29.1139 60.7455 30.8455 60.7455Z" fill="var(--fill-0, white)"/>
<path id="Vector_11" d="M5.90909 59.3273C6.63791 59.3224 7.36672 59.3175 8.11762 59.3125C8.34426 59.3103 8.5709 59.3082 8.8044 59.306C10.6562 59.2957 12.4294 59.3153 13.8596 60.643C14.6601 61.5087 14.7071 62.4503 14.6882 63.574C14.6489 64.4271 14.3257 65.2278 13.7091 65.8273C12.1512 67.0524 10.418 66.9503 8.53864 66.9205C7.67089 66.9107 6.80314 66.901 5.90909 66.8909C5.90909 64.3949 5.90909 61.8989 5.90909 59.3273Z" fill="var(--fill-0, #002367)"/>
<path id="Vector_12" d="M34.8636 60.8636C35.9946 60.8636 37.1256 60.8636 38.2909 60.8636C38.2909 65.6216 38.2909 70.3796 38.2909 75.2818C37.1599 75.2818 36.0289 75.2818 34.8636 75.2818C34.8636 70.5238 34.8636 65.7658 34.8636 60.8636Z" fill="var(--fill-0, white)"/>
<path id="Vector_13" d="M69.0953 63.9968C70.0232 64.6032 70.6453 65.3244 70.9091 66.4182C70.9091 66.6132 70.9091 66.8082 70.9091 67.0091C68.2181 67.0091 65.5271 67.0091 62.7545 67.0091C62.8965 65.8731 63.1869 65.1683 64.0545 64.4091C64.1423 64.3287 64.23 64.2482 64.3205 64.1653C65.7217 63.1781 67.6006 63.1449 69.0953 63.9968Z" fill="var(--fill-0, #002367)"/>
<path id="Vector_14" d="M87.1212 63.9705C87.6719 64.3591 88.1115 64.8195 88.5182 65.3545C88.5889 65.4472 88.6596 65.5398 88.7324 65.6352C88.8727 65.9455 88.8727 65.9455 88.9909 67.0091C86.2999 67.0091 83.6089 67.0091 80.8364 67.0091C80.9784 65.8731 81.2687 65.1683 82.1364 64.4091C82.2192 64.3287 82.3021 64.2482 82.3875 64.1653C83.7638 63.2378 85.6748 63.1151 87.1212 63.9705Z" fill="var(--fill-0, #002367)"/>
<path id="Vector_15" d="M37.9728 54.811C38.3357 55.0716 38.5659 55.3864 38.7636 55.7818C38.8294 56.4853 38.8276 57.0787 38.4091 57.6727C37.8528 58.2317 37.4263 58.5139 36.6216 58.5517C35.8738 58.5448 35.4054 58.2954 34.8636 57.7909C34.4607 57.2659 34.4484 56.7343 34.4675 56.0916C34.5468 55.5006 34.8545 55.1905 35.2773 54.7994C36.0778 54.2591 37.1574 54.3481 37.9728 54.811Z" fill="var(--fill-0, white)"/>
<path id="Vector_16" d="M28.4818 2.48183C51.7402 2.48183 51.7402 2.48183 54.2454 3.3091C54.2454 3.3481 54.2454 3.3871 54.2454 3.42728C54.1138 3.41022 53.9822 3.39316 53.8466 3.37558C53.2715 3.30343 52.6951 3.24648 52.1182 3.19092C52.1182 3.11292 52.1182 3.03492 52.1182 2.95455C51.966 2.95592 51.8138 2.9573 51.657 2.95871C51.4586 2.95982 51.2603 2.96089 51.0619 2.96194C50.9112 2.96343 50.9112 2.96343 50.7575 2.96494C50.6619 2.96532 50.5663 2.9657 50.4678 2.96609C50.3793 2.96671 50.2908 2.96733 50.1996 2.96797C49.9909 2.95455 49.9909 2.95455 49.8727 2.83637C42.8527 2.79737 35.8327 2.75837 28.6 2.71819C28.639 18.7082 28.678 34.6982 28.7182 51.1727C28.6402 51.1727 28.5622 51.1727 28.4818 51.1727C28.4818 35.1047 28.4818 19.0367 28.4818 2.48183Z" fill="var(--fill-0, #A61515)"/>
<path id="Vector_17" d="M28.4818 2.48183C30.9465 2.47905 33.4113 2.47698 35.876 2.4757C37.0207 2.4751 38.1654 2.47427 39.3101 2.47291C40.3091 2.47172 41.3081 2.47097 42.3071 2.47071C42.8349 2.47056 43.3627 2.4702 43.8905 2.46933C47.6783 2.46335 47.6783 2.46335 49.3014 2.53148C49.4028 2.5357 49.5042 2.53992 49.6087 2.54427C51.165 2.62219 52.7616 2.81911 54.2454 3.3091C54.2454 3.3481 54.2454 3.3871 54.2454 3.42728C54.1138 3.41022 53.9822 3.39316 53.8466 3.37558C53.2715 3.30343 52.6951 3.24648 52.1182 3.19092C52.1182 3.11292 52.1182 3.03492 52.1182 2.95455C51.966 2.95593 51.8138 2.9573 51.657 2.95871C51.4586 2.95982 51.2603 2.96089 51.0619 2.96194C50.9112 2.96343 50.9112 2.96343 50.7575 2.96494C50.6619 2.96532 50.5663 2.9657 50.4678 2.9661C50.3793 2.96671 50.2908 2.96733 50.1996 2.96797C49.9909 2.95455 49.9909 2.95455 49.8727 2.83637C49.5977 2.82337 49.3261 2.81806 49.0509 2.81767C48.9205 2.8168 48.9205 2.8168 48.7874 2.81591C48.4938 2.81408 48.2002 2.8131 47.9065 2.81211C47.6969 2.81098 47.4873 2.80979 47.2777 2.80856C46.7069 2.80536 46.136 2.80288 45.5652 2.80053C44.9693 2.79795 44.3734 2.79471 43.7775 2.79154C42.6482 2.78563 41.519 2.78032 40.3897 2.77523C39.1044 2.7694 37.8192 2.7629 36.5339 2.75635C33.8893 2.74289 31.2446 2.73027 28.6 2.71819C28.561 2.64019 28.522 2.56219 28.4818 2.48183Z" fill="var(--fill-0, #C02C2B)"/>
<path id="Vector_18" d="M40.1818 34.1545C43.2238 34.1545 46.2658 34.1545 49.4 34.1545C48.9625 34.4462 48.7462 34.4196 48.2241 34.4177C48.1397 34.4178 48.0553 34.4178 47.9684 34.4178C47.6954 34.4176 47.4224 34.4158 47.1495 34.414C46.9809 34.4136 46.8123 34.4134 46.6437 34.4133C46.0187 34.412 45.3937 34.4087 44.7688 34.4057C43.3721 34.4008 41.9754 34.3959 40.5364 34.3909C40.4974 39.9289 40.4584 45.4669 40.4182 51.1727C40.3402 51.1727 40.2622 51.1727 40.1818 51.1727C40.1818 45.5567 40.1818 39.9407 40.1818 34.1545Z" fill="var(--fill-0, #F3C4C5)"/>
<path id="Vector_19" d="M40.3 12.0545C42.718 12.0545 45.136 12.0545 47.6273 12.0545C47.6273 12.0935 47.6273 12.1325 47.6273 12.1727C47.4966 12.1746 47.4966 12.1746 47.3634 12.1764C46.5442 12.188 45.7251 12.2001 44.906 12.2128C44.4849 12.2194 44.0637 12.2257 43.6425 12.2315C43.1588 12.2382 42.6751 12.2458 42.1914 12.2535C41.9635 12.2565 41.9635 12.2565 41.731 12.2595C41.5915 12.2619 41.4519 12.2642 41.308 12.2666C41.1844 12.2685 41.0608 12.2703 40.9335 12.2722C40.6597 12.2598 40.6597 12.2598 40.5364 12.4091C40.5215 12.7832 40.5144 13.1548 40.5121 13.5291C40.5109 13.6467 40.5098 13.7643 40.5086 13.8854C40.5048 14.2761 40.5019 14.6668 40.499 15.0576C40.4966 15.3277 40.4941 15.5978 40.4915 15.8679C40.485 16.5803 40.4792 17.2928 40.4735 18.0052C40.4675 18.7316 40.461 19.458 40.4544 20.1844C40.4417 21.6108 40.4297 23.0372 40.4182 24.4636C41.2833 24.4664 42.1485 24.4685 43.0136 24.4698C43.4155 24.4704 43.8174 24.4712 44.2193 24.4725C44.6835 24.474 45.1476 24.4747 45.6117 24.4752C45.8238 24.4761 45.8238 24.4761 46.0402 24.477C47.0072 24.4771 47.9637 24.4262 48.9273 24.3455C48.3125 24.7002 47.6772 24.7148 46.9815 24.7134C46.7549 24.7134 46.7549 24.7134 46.5237 24.7134C46.365 24.7128 46.2062 24.7122 46.0475 24.7115C45.9019 24.7114 45.7562 24.7113 45.6062 24.7112C45.0636 24.7106 44.521 24.7089 43.9784 24.7074C42.7645 24.7049 41.5507 24.7025 40.3 24.7C40.3 20.527 40.3 16.354 40.3 12.0545Z" fill="var(--fill-0, #002367)"/>
<path id="Vector_20" d="M40.1818 11.7C41.754 11.689 41.754 11.689 43.358 11.6778C43.8472 11.673 43.8472 11.673 44.3463 11.6681C45.9098 11.6593 47.3982 11.7136 48.9273 12.0546C48.8883 12.1326 48.8493 12.2106 48.8091 12.2909C48.711 12.2788 48.711 12.2788 48.611 12.2664C47.7105 12.1647 46.8146 12.1469 45.909 12.1353C45.7662 12.1331 45.6233 12.1309 45.4761 12.1287C44.9474 12.1206 44.4186 12.1135 43.8898 12.1063C42.1128 12.0807 42.1128 12.0807 40.3 12.0546C40.3 16.2276 40.3 20.4006 40.3 24.7C40.261 24.7 40.222 24.7 40.1818 24.7C40.1818 20.41 40.1818 16.12 40.1818 11.7Z" fill="var(--fill-0, #002367)"/>
<path id="Vector_21" d="M54.0091 32.9727C54.3211 32.9727 54.6331 32.9727 54.9546 32.9727C54.0768 33.5579 52.8969 33.7078 51.8671 33.8813C51.784 33.8953 51.701 33.9094 51.6154 33.9239C50.1696 34.1536 48.7305 34.1708 47.2709 34.1661C47.0689 34.1659 46.8669 34.1657 46.6649 34.1656C46.138 34.1651 45.6111 34.164 45.0842 34.1627C44.5447 34.1614 44.0051 34.1609 43.4655 34.1603C42.4104 34.1591 41.3552 34.157 40.3 34.1546C40.3 34.1156 40.3 34.0766 40.3 34.0364C40.4079 34.0354 40.5158 34.0345 40.627 34.0335C41.6492 34.0242 42.6714 34.0139 43.6936 34.0024C44.2189 33.9965 44.7443 33.991 45.2697 33.9865C45.7778 33.9821 46.2858 33.9766 46.7938 33.9704C46.9866 33.9682 47.1794 33.9665 47.3722 33.9651C48.3573 33.9577 49.3136 33.9286 50.2844 33.7383C50.8724 33.6267 51.4713 33.5889 52.0672 33.5387C52.2078 33.5255 52.2078 33.5255 52.3513 33.5119C52.4345 33.5048 52.5177 33.4976 52.6034 33.4902C52.8653 33.4526 52.8653 33.4526 53.1818 33.2091C53.4574 33.1998 53.7335 33.1987 54.0091 33.2091C54.0091 33.1311 54.0091 33.0531 54.0091 32.9727Z" fill="var(--fill-0, #B02222)"/>
<path id="Vector_22" d="M64.6455 13.3545C64.6845 13.3545 64.7235 13.3545 64.7636 13.3545C64.821 13.5168 64.8774 13.6794 64.9335 13.842C64.9651 13.9325 64.9966 14.023 65.0291 14.1163C65.2666 14.921 65.2518 15.7091 65.2479 16.5408C65.2477 16.6762 65.2476 16.8116 65.2474 16.9511C65.2467 17.3822 65.2453 17.8133 65.2438 18.2443C65.2432 18.5372 65.2426 18.83 65.2421 19.1228C65.2408 19.8395 65.2389 20.5561 65.2364 21.2727C65.1584 21.2727 65.0804 21.2727 65 21.2727C65.0049 21.4214 65.0098 21.5701 65.0148 21.7233C65.0283 22.1343 65.007 22.2077 64.7636 22.5727C64.7802 22.2994 64.7976 22.0261 64.8153 21.7528C64.8249 21.6006 64.8345 21.4485 64.8444 21.2917C64.8818 20.9182 64.8818 20.9182 65 20.8C65.0119 20.4691 65.0165 20.1412 65.0157 19.8102C65.0159 19.6614 65.0159 19.6614 65.016 19.5095C65.0161 19.2993 65.0159 19.0891 65.0154 18.8788C65.0148 18.5559 65.0154 18.233 65.0162 17.9101C65.0161 17.7063 65.0159 17.5026 65.0157 17.2989C65.0159 17.2016 65.0162 17.1044 65.0164 17.0042C65.0574 16.5615 65.0574 16.5615 64.8818 16.1909C64.8434 15.7937 64.8211 15.3963 64.7969 14.998C64.8016 14.6675 64.8016 14.6675 64.6455 14.5364C64.6369 14.3371 64.6355 14.1375 64.6381 13.9381C64.6391 13.8294 64.6402 13.7208 64.6413 13.6089C64.6427 13.525 64.644 13.441 64.6455 13.3545Z" fill="var(--fill-0, #9E1324)"/>
<path id="Vector_23" d="M73.9818 67.3636C74.0208 67.3636 74.0598 67.3636 74.1 67.3636C74.1 67.9486 74.1 68.5336 74.1 69.1364C70.356 69.1364 66.612 69.1364 62.7545 69.1364C62.7545 69.0974 62.7545 69.0584 62.7545 69.0182C62.8902 69.017 63.0259 69.0157 63.1657 69.0145C64.4422 69.0029 65.7187 68.9908 66.9952 68.9781C67.6515 68.9715 68.3078 68.9652 68.9641 68.9594C69.5971 68.9538 70.23 68.9476 70.8629 68.941C71.1049 68.9386 71.3468 68.9364 71.5887 68.9344C71.9266 68.9315 72.2645 68.928 72.6024 68.9243C72.7032 68.9236 72.804 68.9229 72.9079 68.9222C73.4016 68.9289 73.4016 68.9289 73.8636 68.7818C73.9191 68.449 73.9191 68.449 73.9375 68.0653C73.9463 67.9348 73.9552 67.8042 73.9643 67.6697C73.973 67.5182 73.973 67.5182 73.9818 67.3636Z" fill="var(--fill-0, white)"/>
<path id="Vector_24" d="M65.2364 16.0727C65.2754 16.0727 65.3144 16.0727 65.3545 16.0727C65.3545 16.3847 65.3545 16.6967 65.3545 17.0182C65.4325 17.0182 65.5105 17.0182 65.5909 17.0182C65.5943 17.5475 65.5964 18.0769 65.5983 18.6062C65.5993 18.7574 65.6003 18.9086 65.6013 19.0644C65.6017 19.208 65.6021 19.3516 65.6025 19.4995C65.6031 19.6326 65.6037 19.7657 65.6043 19.9028C65.5909 20.2091 65.5909 20.2091 65.4727 20.3273C65.4293 20.6024 65.3897 20.8782 65.3545 21.1545C65.3155 21.1545 65.2765 21.1545 65.2364 21.1545C65.2364 19.4775 65.2364 17.8005 65.2364 16.0727Z" fill="var(--fill-0, white)"/>
<path id="Vector_25" d="M48.4546 2.6C50.4053 2.53098 52.3816 2.69362 54.2455 3.3091C54.2455 3.3481 54.2455 3.3871 54.2455 3.42728C54.1138 3.41022 53.9822 3.39315 53.8466 3.37557C53.2715 3.30343 52.6951 3.24648 52.1182 3.19091C52.1182 3.11291 52.1182 3.03491 52.1182 2.95455C51.966 2.95592 51.8138 2.95729 51.657 2.95871C51.4586 2.95981 51.2603 2.96089 51.0619 2.96194C50.9112 2.96342 50.9112 2.96342 50.7575 2.96494C50.6619 2.96532 50.5663 2.9657 50.4678 2.96609C50.3793 2.96671 50.2908 2.96733 50.1996 2.96797C49.9909 2.95455 49.9909 2.95455 49.8727 2.83637C49.6345 2.80868 49.3955 2.78752 49.1563 2.76989C49.0257 2.75999 48.8951 2.75009 48.7606 2.73988C48.6596 2.73272 48.5586 2.72556 48.4546 2.71819C48.4546 2.67919 48.4546 2.64019 48.4546 2.6Z" fill="var(--fill-0, #C22020)"/>
<path id="Vector_26" d="M77.0545 46.4455C78.3805 46.4455 79.7065 46.4455 81.0727 46.4455C81.0727 46.7185 81.0727 46.9915 81.0727 47.2727C81.029 47.196 80.9853 47.1194 80.9402 47.0404C80.7343 46.7695 80.7343 46.7695 80.3925 46.7392C80.2637 46.7383 80.1349 46.7373 80.0022 46.7363C79.8615 46.7336 79.7208 46.7308 79.5758 46.728C79.4287 46.7274 79.2816 46.7268 79.1301 46.7261C78.8397 46.7231 78.5493 46.7192 78.259 46.7141C78.13 46.7134 78.0011 46.7127 77.8682 46.712C77.5273 46.6818 77.5273 46.6818 77.0545 46.4455Z" fill="var(--fill-0, white)"/>
<path id="Vector_27" d="M47.7455 24.7C47.7065 24.817 47.6675 24.934 47.6273 25.0545C44.0588 24.996 44.0588 24.996 40.4182 24.9364C40.4182 24.8974 40.4182 24.8584 40.4182 24.8182C41.3212 24.8027 42.2242 24.7873 43.1272 24.7719C43.5465 24.7648 43.9658 24.7577 44.3851 24.7505C44.8671 24.7422 45.349 24.734 45.831 24.7258C45.9817 24.7233 46.1324 24.7207 46.2876 24.718C46.4272 24.7156 46.5668 24.7133 46.7106 24.7108C46.8337 24.7087 46.9568 24.7066 47.0836 24.7045C47.3042 24.7013 47.5248 24.7 47.7455 24.7Z" fill="var(--fill-0, #C70708)"/>
<path id="Vector_28" d="M6.64588 69.5311C7.51263 69.6197 8.37715 69.6489 9.24773 69.6756C9.40638 69.6807 9.56504 69.6858 9.72369 69.691C10.1067 69.7034 10.4897 69.7155 10.8727 69.7273C10.8727 69.7663 10.8727 69.8053 10.8727 69.8454C9.15673 69.8844 7.44073 69.9234 5.67273 69.9636C5.67273 69.8856 5.67273 69.8076 5.67273 69.7273C6.08528 69.4522 6.17139 69.4751 6.64588 69.5311Z" fill="var(--fill-0, white)"/>
<path id="Vector_29" d="M54.0091 70.6727C54.488 70.8175 54.8888 70.9917 55.3091 71.2636C55.2701 71.3416 55.2311 71.4196 55.1909 71.5C55.0629 71.4708 55.0629 71.4708 54.9324 71.4409C54.616 71.3847 54.3294 71.3727 54.0091 71.3818C54.0091 71.4598 54.0091 71.5378 54.0091 71.6182C53.8921 71.6572 53.7751 71.6962 53.6545 71.7364C53.6545 71.6584 53.6545 71.5804 53.6545 71.5C53.5765 71.461 53.4985 71.422 53.4182 71.3818C53.6132 71.1478 53.8082 70.9138 54.0091 70.6727Z" fill="var(--fill-0, white)"/>
<path id="Vector_30" d="M61.5727 28.1273C61.6117 28.2053 61.6507 28.2833 61.6909 28.3636C61.7689 28.4026 61.8469 28.4416 61.9273 28.4818C61.7973 28.6349 61.6667 28.7875 61.5358 28.9398C61.4268 29.0673 61.4268 29.0673 61.3156 29.1974C61.1 29.4273 61.1 29.4273 60.7454 29.6636C60.6568 29.479 60.6568 29.479 60.6273 29.1909C60.9753 28.4433 60.9753 28.4433 61.3659 28.1937C61.4341 28.1718 61.5024 28.1499 61.5727 28.1273Z" fill="var(--fill-0, #CF0B0E)"/>
<path id="Vector_31" d="M58.0273 4.84546C58.8185 5.24894 59.504 5.65651 60.1545 6.26365C59.9205 6.38065 59.9205 6.38065 59.6818 6.50001C59.6818 6.34401 59.6818 6.18801 59.6818 6.02728C59.4868 6.06628 59.2918 6.10528 59.0909 6.14546C59.1299 5.98946 59.1689 5.83346 59.2091 5.67274C58.7801 5.59474 58.3511 5.51674 57.9091 5.43637C57.9481 5.24137 57.9871 5.04637 58.0273 4.84546Z" fill="var(--fill-0, #C51616)"/>
<path id="Vector_32" d="M60.5091 29.5455C60.5481 29.6625 60.5871 29.7795 60.6273 29.9C60.2373 30.212 59.8473 30.524 59.4454 30.8455C59.4064 30.6895 59.3674 30.5335 59.3273 30.3727C59.4053 30.2947 59.4833 30.2167 59.5636 30.1364C59.6587 30.034 59.7538 29.9316 59.8517 29.8261C60.1545 29.5455 60.1545 29.5455 60.5091 29.5455Z" fill="var(--fill-0, #D01014)"/>
<path id="Vector_33" d="M62.4 27.7727C62.478 27.8117 62.556 27.8507 62.6364 27.8909C62.4858 28.1318 62.3278 28.3682 62.1636 28.6C62.0856 28.6 62.0076 28.6 61.9273 28.6C61.8971 28.6664 61.8669 28.7328 61.8359 28.8013C61.6724 29.1074 61.4782 29.3624 61.2625 29.6341C61.1878 29.7285 61.1132 29.823 61.0363 29.9203C60.9793 29.9916 60.9223 30.0629 60.8636 30.1364C60.7076 30.0974 60.5516 30.0584 60.3909 30.0182C60.4765 29.9353 60.5621 29.8524 60.6503 29.767C61.2923 29.1393 61.8933 28.5188 62.4 27.7727Z" fill="var(--fill-0, #FDE1DF)"/>
<path id="Vector_34" d="M69.4909 50.2273C69.6079 50.2273 69.7249 50.2273 69.8455 50.2273C69.8455 50.3053 69.8455 50.3833 69.8455 50.4636C70.372 50.5806 70.372 50.5806 70.9091 50.7C70.9091 50.778 70.9091 50.856 70.9091 50.9364C71.0334 50.9534 71.1577 50.9705 71.2858 50.9881C71.6365 51.0398 71.9808 51.0992 72.3273 51.1727C72.1334 51.3029 72.1334 51.3029 71.8545 51.4091C71.0211 51.2448 70.2349 50.8642 69.4909 50.4636C69.4909 50.3856 69.4909 50.3076 69.4909 50.2273Z" fill="var(--fill-0, white)"/>
<path id="Vector_35" d="M80.0091 62.4C80.0091 62.595 80.0091 62.79 80.0091 62.9909C79.8531 62.9909 79.6971 62.9909 79.5364 62.9909C79.5266 63.0592 79.5169 63.1274 79.5068 63.1977C79.393 63.5391 79.2022 63.6871 78.9455 63.9364C78.8221 64.1302 78.7025 64.3265 78.5909 64.5273C78.5129 64.4493 78.4349 64.3713 78.3546 64.2909C79.6891 62.4 79.6891 62.4 80.0091 62.4Z" fill="var(--fill-0, white)"/>
<path id="Vector_36" d="M30.4909 60.7455C30.6079 60.7455 30.7249 60.7455 30.8455 60.7455C30.8455 61.7985 30.8455 62.8515 30.8455 63.9364C30.3385 63.8974 29.8315 63.8584 29.3091 63.8182C29.3091 63.7792 29.3091 63.7402 29.3091 63.7C29.3831 63.6929 29.4572 63.6857 29.5335 63.6783C29.6783 63.6635 29.6783 63.6635 29.8261 63.6483C29.9221 63.6387 30.0181 63.6291 30.117 63.6192C30.3778 63.5947 30.3778 63.5947 30.6091 63.4637C30.6481 62.6057 30.6871 61.7477 30.7273 60.8637C30.6493 60.8247 30.5713 60.7857 30.4909 60.7455Z" fill="var(--fill-0, white)"/>
<path id="Vector_37" d="M66.7741 75.1779C66.8636 75.1837 66.9531 75.1894 67.0453 75.1953C67.1382 75.2019 67.231 75.2085 67.3267 75.2153C67.4209 75.2215 67.5152 75.2277 67.6122 75.234C67.8446 75.2493 68.0768 75.2655 68.3091 75.2818C68.3481 75.3598 68.3871 75.4378 68.4273 75.5182C67.6083 75.5182 66.7893 75.5182 65.9455 75.5182C65.9455 75.4402 65.9455 75.3622 65.9455 75.2818C66.2793 75.1705 66.4349 75.155 66.7741 75.1779Z" fill="var(--fill-0, white)"/>
<path id="Vector_38" d="M55.5454 71.5C55.7012 71.5699 55.8562 71.6417 56.0108 71.7142C56.1403 71.7738 56.1403 71.7738 56.2725 71.8347C56.4909 71.9727 56.4909 71.9727 56.6091 72.3273C56.4392 72.6449 56.4392 72.6449 56.2545 72.9182C56.2375 72.8451 56.2204 72.7719 56.2028 72.6966C56.1444 72.4416 56.1444 72.4416 56.0182 72.2091C55.7789 72.132 55.7789 72.132 55.5454 72.0909C55.5454 71.8959 55.5454 71.7009 55.5454 71.5Z" fill="var(--fill-0, white)"/>
<path id="Vector_39" d="M27.6545 64.4091C27.7325 64.4481 27.8105 64.4871 27.8909 64.5273C27.7779 64.6801 27.6646 64.8327 27.5511 64.9852C27.4881 65.0702 27.425 65.1552 27.36 65.2428C27.0684 65.6191 26.7638 65.8267 26.3545 66.0636C26.5843 65.3534 27.0364 64.8212 27.6545 64.4091Z" fill="var(--fill-0, #E4EFF6)"/>
<path id="Vector_40" d="M54.0091 32.9727C54.3211 32.9727 54.6331 32.9727 54.9545 32.9727C54.1214 33.5281 52.99 33.7208 52 33.8C52.039 33.722 52.078 33.644 52.1182 33.5636C52.3324 33.493 52.3324 33.493 52.5909 33.4381C52.9184 33.3844 52.9184 33.3844 53.1818 33.2091C53.4575 33.2043 53.7334 33.2041 54.0091 33.2091C54.0091 33.1311 54.0091 33.0531 54.0091 32.9727Z" fill="var(--fill-0, #C21718)"/>
<path id="Vector_41" d="M104.827 73.7454C104.905 73.7454 104.983 73.7454 105.064 73.7454C105.142 74.0184 105.22 74.2914 105.3 74.5727C104.635 75.0454 104.635 75.0454 104.236 75.0454C104.275 74.8894 104.314 74.7334 104.355 74.5727C104.55 74.5727 104.745 74.5727 104.945 74.5727C104.906 74.2997 104.867 74.0267 104.827 73.7454Z" fill="var(--fill-0, white)"/>
<path id="Vector_42" d="M43.2545 65.1182C43.3715 65.1572 43.4885 65.1962 43.6091 65.2364C43.4921 65.2754 43.3751 65.3144 43.2545 65.3545C43.2155 65.7835 43.1765 66.2125 43.1364 66.6545C43.2144 66.6155 43.2924 66.5765 43.3727 66.5364C43.2947 66.6924 43.2167 66.8484 43.1364 67.0091C43.0194 67.0091 42.9024 67.0091 42.7818 67.0091C42.8281 66.3053 42.9439 65.753 43.2545 65.1182Z" fill="var(--fill-0, white)"/>
<path id="Vector_43" d="M58.8545 4.72727C59.0105 4.72727 59.1665 4.72727 59.3273 4.72727C59.3273 5.00027 59.3273 5.27327 59.3273 5.55455C58.8551 5.39267 58.5236 5.1696 58.1454 4.84546C58.4964 4.90396 58.4964 4.90396 58.8545 4.96364C58.8545 4.88564 58.8545 4.80764 58.8545 4.72727Z" fill="var(--fill-0, #FCE8E5)"/>
<path id="Vector_44" d="M46.9182 71.0273C47.368 71.4063 47.8099 71.7845 48.2182 72.2091C47.9842 72.2481 47.7502 72.2871 47.5091 72.3273C47.4945 72.259 47.4798 72.1908 47.4648 72.1204C47.3901 71.8518 47.2859 71.627 47.1545 71.3818C47.0765 71.3818 46.9985 71.3818 46.9182 71.3818C46.9182 71.2648 46.9182 71.1478 46.9182 71.0273Z" fill="var(--fill-0, white)"/>
<path id="Vector_45" d="M35.5727 54.6C35.6614 54.8068 35.6614 54.8068 35.6909 55.0727C35.417 55.4278 35.1913 55.5999 34.7455 55.6636C34.7663 55.3824 34.8278 55.2261 35.0294 55.0279C35.2071 54.8811 35.3897 54.7402 35.5727 54.6Z" fill="var(--fill-0, white)"/>
<path id="Vector_46" d="M72.4455 72.4454C72.6795 72.6404 72.9135 72.8354 73.1545 73.0364C72.9927 73.41 72.9195 73.5082 72.5636 73.7454C72.6026 73.5114 72.6416 73.2774 72.6818 73.0364C72.5648 72.9974 72.4478 72.9584 72.3273 72.9182C72.3663 72.7622 72.4053 72.6062 72.4455 72.4454Z" fill="var(--fill-0, white)"/>
<path id="Vector_47" d="M47.6273 63.8182C47.7833 63.8962 47.9393 63.9742 48.1 64.0545C48.1 64.1325 48.1 64.2105 48.1 64.2909C47.8932 64.495 47.8932 64.495 47.6273 64.7193C47.5395 64.794 47.4518 64.8686 47.3614 64.9455C47.2931 65.0025 47.2249 65.0595 47.1545 65.1182C47.0765 64.9622 46.9985 64.8062 46.9182 64.6455C46.9913 64.6113 47.0644 64.5772 47.1398 64.542C47.4067 64.4165 47.4067 64.4165 47.6273 64.1727C47.6273 64.0557 47.6273 63.9387 47.6273 63.8182Z" fill="var(--fill-0, white)"/>
<path id="Vector_48" d="M59.8 30.6091C59.722 30.7651 59.644 30.9211 59.5636 31.0818C59.4856 31.0428 59.4076 31.0038 59.3273 30.9636C59.298 31.0392 59.2688 31.1148 59.2386 31.1926C59.0909 31.4364 59.0909 31.4364 58.8545 31.5102C58.7765 31.5249 58.6985 31.5395 58.6182 31.5545C58.5402 31.6325 58.4622 31.7105 58.3818 31.7909C58.3038 31.7129 58.2258 31.6349 58.1454 31.5545C58.3765 31.3963 58.6079 31.2389 58.8398 31.0818C58.9686 30.9941 59.0975 30.9063 59.2303 30.8159C59.5636 30.6091 59.5636 30.6091 59.8 30.6091Z" fill="var(--fill-0, #FDDDD9)"/>
<path id="Vector_49" d="M81.6636 73.8636C81.9148 73.9744 81.9148 73.9744 82.1364 74.1C82.0584 74.1 81.9804 74.1 81.9 74.1C81.9 74.178 81.9 74.256 81.9 74.3364C81.783 74.3949 81.783 74.3949 81.6636 74.4545C81.6636 74.5715 81.6636 74.6885 81.6636 74.8091C81.4296 74.6921 81.1956 74.5751 80.9545 74.4545C81.3977 73.9966 81.3977 73.9966 81.6636 73.8636Z" fill="var(--fill-0, white)"/>
<path id="Vector_50" d="M17.0182 59.3273C17.5216 59.7408 17.7458 60.2634 17.9636 60.8636C17.9636 60.9416 17.9636 61.0196 17.9636 61.1C17.8466 61.1 17.7296 61.1 17.6091 61.1C17.5311 60.71 17.4531 60.32 17.3727 59.9182C17.2947 59.9182 17.2167 59.9182 17.1364 59.9182C17.0974 59.7232 17.0584 59.5282 17.0182 59.3273Z" fill="var(--fill-0, white)"/>
<path id="Vector_51" d="M25.7636 61.3364C25.8026 61.3364 25.8416 61.3364 25.8818 61.3364C25.8818 61.5314 25.8818 61.7264 25.8818 61.9273C26.0378 62.0053 26.1938 62.0833 26.3546 62.1636C26.2004 62.4023 26.0428 62.6387 25.8818 62.8727C25.8428 62.8727 25.8038 62.8727 25.7636 62.8727C25.7636 62.3657 25.7636 61.8587 25.7636 61.3364Z" fill="var(--fill-0, #EFF9FC)"/>
<path id="Vector_52" d="M65.1182 20.0909C65.1572 20.0909 65.1962 20.0909 65.2364 20.0909C65.2364 20.4809 65.2364 20.8709 65.2364 21.2727C65.1584 21.2727 65.0804 21.2727 65 21.2727C65.0049 21.4214 65.0097 21.5701 65.0148 21.7233C65.0282 22.1343 65.007 22.2077 64.7636 22.5727C64.8557 20.8258 64.8557 20.8258 65.1182 20.0909Z" fill="var(--fill-0, #A51423)"/>
<path id="Vector_53" d="M16.3091 58.5C16.5431 58.695 16.7771 58.89 17.0182 59.0909C16.9792 59.2469 16.9402 59.4029 16.9 59.5636C16.6045 59.4307 16.6045 59.4307 16.3091 59.2091C16.2721 58.8324 16.2721 58.8324 16.3091 58.5Z" fill="var(--fill-0, white)"/>
<path id="Vector_54" d="M46.704 74.0261C46.7747 74.0505 46.8453 74.0749 46.9182 74.1C46.8792 74.256 46.8402 74.412 46.8 74.5727C46.878 74.5727 46.956 74.5727 47.0364 74.5727C46.9974 74.6507 46.9584 74.7287 46.9182 74.8091C46.2239 74.4841 46.2239 74.4841 46.0909 74.2182C46.4454 73.9818 46.4454 73.9818 46.704 74.0261Z" fill="var(--fill-0, white)"/>
<path id="Vector_55" d="M78.9455 72.6818C79.4883 72.8574 79.8242 73.1368 80.2455 73.5091C80.2065 73.5871 80.1675 73.6651 80.1273 73.7454C79.7479 73.5821 79.5305 73.3999 79.2705 73.0807C79.2089 73.006 79.1474 72.9314 79.084 72.8545C79.0382 72.7975 78.9925 72.7405 78.9455 72.6818Z" fill="var(--fill-0, white)"/>
<path id="Vector_56" d="M91 64.0545C91.078 64.0545 91.156 64.0545 91.2364 64.0545C91.3157 64.2069 91.3944 64.3596 91.4727 64.5125C91.5166 64.5975 91.5605 64.6825 91.6057 64.7701C91.7091 65 91.7091 65 91.7091 65.2364C91.5531 65.1974 91.3971 65.1584 91.2364 65.1182C91.1584 64.7672 91.0804 64.4162 91 64.0545Z" fill="var(--fill-0, white)"/>
<path id="Vector_57" d="M83.4659 63.4489C83.5713 63.451 83.6767 63.4531 83.7854 63.4553C83.9051 63.4594 83.9051 63.4594 84.0273 63.4636C83.7124 63.6253 83.3969 63.7709 83.067 63.8994C82.9459 63.9476 82.9459 63.9476 82.8224 63.9968C82.6091 64.0545 82.6091 64.0545 82.3727 63.9364C82.3727 63.8584 82.3727 63.7804 82.3727 63.7C82.7523 63.4747 83.0273 63.4373 83.4659 63.4489Z" fill="var(--fill-0, white)"/>
<path id="Vector_58" d="M64.7636 22.9273C64.8026 22.9273 64.8416 22.9273 64.8818 22.9273C64.9191 23.549 64.8423 23.9254 64.5273 24.4636C64.4493 24.4636 64.3713 24.4636 64.2909 24.4636C64.347 24.2296 64.4038 23.9957 64.4608 23.7619C64.4923 23.6317 64.5239 23.5014 64.5564 23.3672C64.6455 23.0455 64.6455 23.0455 64.7636 22.9273Z" fill="var(--fill-0, #FCDCDF)"/>
<path id="Vector_59" d="M13.9454 65.3545C14.0624 65.3935 14.1794 65.4325 14.3 65.4727C13.9661 65.819 13.616 66.1229 13.2364 66.4182C13.1584 66.3402 13.0804 66.2622 13 66.1818C13.4432 65.8273 13.4432 65.8273 13.7091 65.8273C13.7871 65.6713 13.8651 65.5153 13.9454 65.3545Z" fill="var(--fill-0, white)"/>
<path id="Vector_60" d="M89.5818 62.2818C89.7207 62.3913 89.8584 62.5024 89.9954 62.6142C90.0722 62.6759 90.149 62.7376 90.2281 62.8012C90.4091 62.9909 90.4091 62.9909 90.4091 63.3454C90.2921 63.3064 90.1751 63.2674 90.0545 63.2273C89.9375 63.2858 89.9375 63.2858 89.8182 63.3454C89.8011 63.2577 89.784 63.1699 89.7665 63.0795C89.7116 62.8112 89.6493 62.5472 89.5818 62.2818Z" fill="var(--fill-0, white)"/>
<path id="Vector_61" d="M57.5545 32.0273C57.5545 32.1443 57.5545 32.2613 57.5545 32.3818C57.4765 32.3818 57.3985 32.3818 57.3182 32.3818C57.2792 32.4598 57.2402 32.5378 57.2 32.6182C56.888 32.6182 56.576 32.6182 56.2545 32.6182C56.5938 32.2789 57.0657 32.0273 57.5545 32.0273Z" fill="var(--fill-0, #FBE2E3)"/>
<path id="Vector_62" d="M49.7545 63.5818C49.7545 63.6208 49.7545 63.6598 49.7545 63.7C49.6733 63.7242 49.5921 63.7484 49.5085 63.7734C49.402 63.8052 49.2955 63.8371 49.1858 63.8699C49.0274 63.9172 49.0274 63.9172 48.8659 63.9654C48.649 64.0314 48.4332 64.101 48.2182 64.1727C48.2847 63.9511 48.2847 63.9511 48.4545 63.7C48.917 63.5201 49.2799 63.392 49.7545 63.5818Z" fill="var(--fill-0, white)"/>
<path id="Vector_63" d="M72.9182 63.9364C73.2693 64.2373 73.4474 64.5772 73.6273 65C73.5883 65.078 73.5493 65.156 73.5091 65.2364C73.2801 65.1182 73.2801 65.1182 73.0364 64.8818C72.9577 64.5628 72.9398 64.2665 72.9182 63.9364Z" fill="var(--fill-0, white)"/>
<path id="Vector_64" d="M82.8455 60.9818C82.8455 61.0988 82.8455 61.2158 82.8455 61.3364C82.6929 61.3761 82.5402 61.4154 82.3875 61.4545C82.3025 61.4765 82.2175 61.4984 82.1299 61.521C81.9 61.5727 81.9 61.5727 81.6636 61.5727C81.6636 61.4947 81.6636 61.4167 81.6636 61.3364C81.8161 61.2768 81.9688 61.2178 82.1216 61.1591C82.2491 61.1097 82.2491 61.1097 82.3792 61.0594C82.6091 60.9818 82.6091 60.9818 82.8455 60.9818Z" fill="var(--fill-0, white)"/>
<path id="Vector_65" d="M89.1091 74.2182C89.4211 74.2182 89.7331 74.2182 90.0545 74.2182C89.7174 74.4929 89.3997 74.6615 88.9909 74.8091C89.0299 74.6141 89.0689 74.4191 89.1091 74.2182Z" fill="var(--fill-0, white)"/>
<path id="Vector_66" d="M80.7182 69.3727C80.8352 69.4312 80.8352 69.4312 80.9545 69.4909C81.0409 69.7644 81.1202 70.0402 81.1909 70.3182C81.0349 70.3572 80.8789 70.3962 80.7182 70.4364C80.7182 70.0854 80.7182 69.7344 80.7182 69.3727Z" fill="var(--fill-0, white)"/>
<path id="Vector_67" d="M87.4545 60.8636C87.4545 60.9416 87.4545 61.0196 87.4545 61.1C86.7525 60.983 86.7525 60.983 86.0364 60.8636C86.0364 60.8246 86.0364 60.7856 86.0364 60.7455C86.206 60.7191 86.3759 60.6949 86.546 60.6716C86.6879 60.651 86.6879 60.651 86.8327 60.63C87.1 60.6273 87.1 60.6273 87.4545 60.8636Z" fill="var(--fill-0, #D3E0EB)"/>
<path id="Vector_68" d="M57.0818 31.7909C57.2768 31.7909 57.4718 31.7909 57.6727 31.7909C57.3987 32.1075 57.1624 32.2237 56.7642 32.3449C56.6209 32.3894 56.6209 32.3894 56.4748 32.4349C56.3658 32.4671 56.3658 32.4671 56.2545 32.5C56.2545 32.422 56.2545 32.344 56.2545 32.2636C56.3691 32.2295 56.4837 32.1954 56.6017 32.1602C56.9762 32.0696 56.9762 32.0696 57.0818 31.7909Z" fill="var(--fill-0, #C31C21)"/>
<path id="Vector_69" d="M58.0273 4.84546C58.2613 4.96246 58.4953 5.07946 58.7364 5.20001C58.7364 5.27801 58.7364 5.35601 58.7364 5.43637C58.3818 5.55455 58.3818 5.55455 58.1233 5.44376C58.0526 5.40232 57.9819 5.36088 57.9091 5.31819C57.9481 5.16219 57.9871 5.00619 58.0273 4.84546Z" fill="var(--fill-0, #C80F0E)"/>
<path id="Vector_70" d="M49.1932 75.0824C49.2956 75.1226 49.2956 75.1226 49.4 75.1636C49.4 75.2416 49.4 75.3196 49.4 75.4C49.634 75.4 49.868 75.4 50.1091 75.4C50.1091 75.439 50.1091 75.478 50.1091 75.5182C49.5379 75.528 49.0175 75.5126 48.4546 75.4C48.8618 75.0364 48.8618 75.0364 49.1932 75.0824Z" fill="var(--fill-0, white)"/>
<path id="Vector_71" d="M97.8545 73.7454C97.9935 73.8549 98.1311 73.966 98.2682 74.0778C98.345 74.1395 98.4217 74.2012 98.5009 74.2648C98.6818 74.4545 98.6818 74.4545 98.6818 74.8091C98.6428 74.7311 98.6038 74.6531 98.5636 74.5727C98.4881 74.5557 98.4125 74.5386 98.3347 74.521C98.0909 74.4545 98.0909 74.4545 97.8545 74.1C97.8545 73.983 97.8545 73.866 97.8545 73.7454Z" fill="var(--fill-0, #E1EDF6)"/>
<path id="Vector_72" d="M51.7636 63.5818C51.9196 63.5818 52.0756 63.5818 52.2364 63.5818C52.2364 63.6598 52.2364 63.7378 52.2364 63.8182C52.3924 63.8182 52.5484 63.8182 52.7091 63.8182C52.7481 63.9742 52.7871 64.1302 52.8273 64.2909C52.2423 64.0569 52.2423 64.0569 51.6455 63.8182C51.6845 63.7402 51.7235 63.6622 51.7636 63.5818Z" fill="var(--fill-0, white)"/>
<path id="Vector_73" d="M65.3545 43.7273C65.4715 43.7663 65.5885 43.8053 65.7091 43.8455C65.7091 44.2745 65.7091 44.7035 65.7091 45.1455C65.4699 44.7867 65.4348 44.6498 65.3989 44.2369C65.39 44.1414 65.3812 44.0459 65.3721 43.9475C65.3663 43.8748 65.3605 43.8021 65.3545 43.7273Z" fill="var(--fill-0, white)"/>
<path id="Vector_74" d="M54.2454 3.30908C54.4127 3.29622 54.5802 3.28711 54.7477 3.27954C54.841 3.27406 54.9342 3.26857 55.0302 3.26292C55.3091 3.30908 55.3091 3.30908 55.7818 3.78181C55.2748 3.66481 54.7678 3.54781 54.2454 3.42727C54.2454 3.38827 54.2454 3.34927 54.2454 3.30908Z" fill="var(--fill-0, #FBD4CF)"/>
<path id="Vector_75" d="M56.2546 71.9727C56.3716 72.0117 56.4886 72.0507 56.6091 72.0909C56.538 72.3297 56.4586 72.5661 56.3727 72.8C56.2557 72.8585 56.2557 72.8585 56.1364 72.9182C56.1314 72.6425 56.1315 72.3666 56.1364 72.0909C56.1754 72.0519 56.2144 72.0129 56.2546 71.9727Z" fill="var(--fill-0, white)"/>
<path id="Vector_76" d="M63.3455 26.3546C63.3845 26.3546 63.4235 26.3546 63.4636 26.3546C63.4932 26.6205 63.4932 26.6205 63.4636 26.9455C63.2273 27.2188 63.2273 27.2188 62.9909 27.4182C62.9129 27.3792 62.8349 27.3402 62.7545 27.3C62.8501 27.1421 62.9462 26.9846 63.0426 26.8273C63.0961 26.7395 63.1496 26.6518 63.2046 26.5614C63.2511 26.4931 63.2976 26.4249 63.3455 26.3546Z" fill="var(--fill-0, #FDDEDC)"/>
<path id="Vector_77" d="M98.9182 73.9818C98.9962 74.0208 99.0742 74.0598 99.1545 74.1C99.1545 74.295 99.1545 74.49 99.1545 74.6909C98.8 74.6909 98.8 74.6909 98.6006 74.5136C98.5494 74.4551 98.4982 74.3966 98.4455 74.3364C98.6015 74.2974 98.7575 74.2584 98.9182 74.2182C98.9182 74.1402 98.9182 74.0622 98.9182 73.9818Z" fill="var(--fill-0, white)"/>
<path id="Vector_78" d="M47.6273 71.6182C47.8026 71.6681 47.9773 71.7202 48.1517 71.7733C48.2977 71.8165 48.2977 71.8165 48.4467 71.8606C48.5273 71.8976 48.6079 71.9346 48.6909 71.9727C48.7299 72.0897 48.7689 72.2067 48.8091 72.3273C48.2854 72.1845 47.984 72.0299 47.6273 71.6182Z" fill="var(--fill-0, #D5E3F1)"/>
<path id="Vector_79" d="M89.3455 71.1455C89.4625 71.2625 89.5795 71.3795 89.7 71.5C89.5684 71.5512 89.5684 71.5512 89.4341 71.6034C89.1602 71.7154 88.8988 71.8366 88.6364 71.9727C88.7816 71.5369 88.9836 71.4145 89.3455 71.1455Z" fill="var(--fill-0, white)"/>
<path id="Vector_80" d="M13.9454 60.7455C14.2863 60.8983 14.5213 61.0598 14.7727 61.3364C14.6167 61.3754 14.4607 61.4144 14.3 61.4546C14.183 61.2206 14.066 60.9866 13.9454 60.7455ZM14.6545 60.8637C14.7325 60.9417 14.8105 61.0197 14.8909 61.1C14.8129 61.1 14.7349 61.1 14.6545 61.1C14.6545 61.022 14.6545 60.944 14.6545 60.8637Z" fill="var(--fill-0, white)"/>
<path id="Vector_81" d="M71.7364 74.3364C71.3992 74.6111 71.0816 74.7796 70.6727 74.9273C70.9308 74.3558 71.1211 74.3202 71.7364 74.3364Z" fill="var(--fill-0, white)"/>
<path id="Vector_82" d="M46.8 64.8818C46.878 64.8818 46.956 64.8818 47.0364 64.8818C46.9655 65.2784 46.8182 65.5174 46.5636 65.8273C46.5246 65.6323 46.4856 65.4373 46.4455 65.2364C46.5625 65.1974 46.6795 65.1584 46.8 65.1182C46.8 65.0402 46.8 64.9622 46.8 64.8818Z" fill="var(--fill-0, white)"/>
<path id="Vector_83" d="M61.5727 62.6364C61.6897 62.6754 61.8067 62.7144 61.9273 62.7546C61.6431 63.1808 61.4608 63.2101 60.9818 63.3455C61.1768 63.1115 61.3718 62.8775 61.5727 62.6364Z" fill="var(--fill-0, white)"/>
<path id="Vector_84" d="M58.8545 31.2C58.175 31.6727 58.175 31.6727 57.9091 31.6727C57.9091 31.5557 57.9091 31.4387 57.9091 31.3182C58.5886 31.067 58.5886 31.067 58.8545 31.2Z" fill="var(--fill-0, #C31417)"/>
<path id="Vector_85" d="M63.7 70.7909C63.856 70.8689 64.012 70.9469 64.1727 71.0273C64.0947 71.1833 64.0167 71.3393 63.9364 71.5C63.8194 71.383 63.7024 71.266 63.5818 71.1454C63.6208 71.0284 63.6598 70.9114 63.7 70.7909Z" fill="var(--fill-0, #E4EFF2)"/>
<path id="Vector_86" d="M52.9454 64.2909C53.2187 64.3131 53.2187 64.3131 53.5364 64.4091C53.7506 64.7119 53.7506 64.7119 53.8909 65C53.5364 65 53.5364 65 53.3725 64.8449C53.2301 64.6602 53.0878 64.4756 52.9454 64.2909Z" fill="var(--fill-0, white)"/>
<path id="Vector_87" d="M69.0182 63.9364C69.2132 63.9364 69.4082 63.9364 69.6091 63.9364C69.6871 64.0924 69.7651 64.2484 69.8455 64.4091C69.4909 64.4091 69.4909 64.4091 69.2324 64.1727C69.1617 64.0947 69.091 64.0167 69.0182 63.9364Z" fill="var(--fill-0, white)"/>
<path id="Vector_88" d="M90.5273 63.2273C90.6443 63.3443 90.7613 63.4613 90.8818 63.5818C90.8038 63.7378 90.7258 63.8938 90.6455 64.0545C90.5285 64.0155 90.4115 63.9765 90.2909 63.9363C90.3689 63.7023 90.4469 63.4683 90.5273 63.2273Z" fill="var(--fill-0, white)"/>
<path id="Vector_89" d="M55.0727 62.1636C55.3457 62.3976 55.6187 62.6316 55.9 62.8727C55.783 62.9117 55.666 62.9507 55.5455 62.9909C55.5455 62.9129 55.5455 62.8349 55.5455 62.7545C55.3895 62.6765 55.2335 62.5985 55.0727 62.5182C55.0727 62.4012 55.0727 62.2842 55.0727 62.1636Z" fill="var(--fill-0, white)"/>
<path id="Vector_90" d="M47.2727 61.2182C47.3507 61.2572 47.4287 61.2962 47.5091 61.3363C47.2727 61.6909 47.2727 61.6909 47.0364 61.7869C46.9584 61.7942 46.8804 61.8015 46.8 61.8091C46.722 61.7311 46.644 61.6531 46.5636 61.5727C46.7958 61.4465 47.0326 61.3286 47.2727 61.2182Z" fill="var(--fill-0, white)"/>
<path id="Vector_91" d="M62.5182 8.74543C62.8107 8.86243 62.8107 8.86243 63.1091 8.9818C63.1091 9.2158 63.1091 9.4498 63.1091 9.69089C62.8429 9.37317 62.6503 9.14177 62.5182 8.74543Z" fill="var(--fill-0, #FDDAD4)"/>
<path id="Vector_92" d="M60.5091 6.49999C60.8582 6.66208 61.152 6.85319 61.4545 7.0909C61.4155 7.2079 61.3765 7.3249 61.3364 7.44544C61.1981 7.31038 61.0603 7.17489 60.9227 7.03919C60.8459 6.96378 60.7692 6.88837 60.6901 6.81068C60.5091 6.61817 60.5091 6.61817 60.5091 6.49999Z" fill="var(--fill-0, #FFE8E5)"/>
<path id="Vector_93" d="M57.104 3.98124C57.3182 4.13635 57.3182 4.13635 57.4364 4.4909C57.0854 4.3739 56.7344 4.2569 56.3727 4.13635C56.8454 3.89999 56.8454 3.89999 57.104 3.98124Z" fill="var(--fill-0, #F9D3D1)"/>
</g>
<defs>
<clipPath id="clip0_0_38">
<rect width="107.427" height="78" fill="white"/>
</clipPath>
</defs>
</svg>
